<mxfile host="app.diagrams.net" modified="2024-05-14T21:40:25.112Z" agent="Mozilla/5.0 (Windows NT 10.0; Win64; x64) AppleWebKit/537.36 (KHTML, like Gecko) Chrome/124.0.0.0 Safari/537.36" etag="PbGM4AIwR_2bhfehGWKy" version="24.3.1" type="device">
  <diagram name="Page-1" id="6YMlPRgr__sE1VqqXfl5">
    <mxGraphModel dx="1195" dy="615" grid="1" gridSize="10" guides="1" tooltips="1" connect="1" arrows="1" fold="1" page="1" pageScale="1" pageWidth="850" pageHeight="1100" math="0" shadow="0">
      <root>
        <mxCell id="0" />
        <mxCell id="1" parent="0" />
        <mxCell id="x-FP0R9EFiho5maiLRkY-2" style="edgeStyle=orthogonalEdgeStyle;rounded=0;orthogonalLoop=1;jettySize=auto;html=1;" parent="1" source="x-FP0R9EFiho5maiLRkY-10" edge="1">
          <mxGeometry relative="1" as="geometry">
            <mxPoint x="425" y="140" as="targetPoint" />
            <mxPoint x="425" y="80" as="sourcePoint" />
          </mxGeometry>
        </mxCell>
        <mxCell id="x-FP0R9EFiho5maiLRkY-3" value="This chart needs to be repeated for every cell" style="rounded=0;whiteSpace=wrap;html=1;" parent="1" vertex="1">
          <mxGeometry x="150" y="10" width="120" height="60" as="geometry" />
        </mxCell>
        <mxCell id="x-FP0R9EFiho5maiLRkY-10" value="Start" style="rounded=1;whiteSpace=wrap;html=1;" parent="1" vertex="1">
          <mxGeometry x="365" width="120" height="60" as="geometry" />
        </mxCell>
        <mxCell id="x-FP0R9EFiho5maiLRkY-25" value="" style="edgeStyle=orthogonalEdgeStyle;rounded=0;orthogonalLoop=1;jettySize=auto;html=1;" parent="1" target="x-FP0R9EFiho5maiLRkY-24" edge="1">
          <mxGeometry relative="1" as="geometry">
            <Array as="points">
              <mxPoint x="680" y="240" />
            </Array>
            <mxPoint x="610" y="240" as="sourcePoint" />
          </mxGeometry>
        </mxCell>
        <mxCell id="x-FP0R9EFiho5maiLRkY-31" value="This loop will update location of each node and then update the center of mass of the entire cell" style="text;html=1;align=center;verticalAlign=middle;whiteSpace=wrap;rounded=0;" parent="1" vertex="1">
          <mxGeometry x="640" y="50" width="150" height="30" as="geometry" />
        </mxCell>
        <mxCell id="Zov4xInvCPfz1kqXCunN-9" style="edgeStyle=orthogonalEdgeStyle;rounded=0;orthogonalLoop=1;jettySize=auto;html=1;entryX=0.5;entryY=0;entryDx=0;entryDy=0;exitX=0;exitY=0.5;exitDx=0;exitDy=0;" edge="1" parent="1" source="Zov4xInvCPfz1kqXCunN-2">
          <mxGeometry relative="1" as="geometry">
            <mxPoint x="180" y="350" as="targetPoint" />
          </mxGeometry>
        </mxCell>
        <mxCell id="Zov4xInvCPfz1kqXCunN-14" style="edgeStyle=orthogonalEdgeStyle;rounded=0;orthogonalLoop=1;jettySize=auto;html=1;entryX=0.5;entryY=0;entryDx=0;entryDy=0;" edge="1" parent="1" source="Zov4xInvCPfz1kqXCunN-2" target="Zov4xInvCPfz1kqXCunN-13">
          <mxGeometry relative="1" as="geometry" />
        </mxCell>
        <mxCell id="Zov4xInvCPfz1kqXCunN-2" value="Is Node merged?" style="rhombus;whiteSpace=wrap;html=1;" vertex="1" parent="1">
          <mxGeometry x="240" y="240" width="80" height="80" as="geometry" />
        </mxCell>
        <mxCell id="Zov4xInvCPfz1kqXCunN-4" style="edgeStyle=orthogonalEdgeStyle;rounded=0;orthogonalLoop=1;jettySize=auto;html=1;entryX=0.5;entryY=0;entryDx=0;entryDy=0;" edge="1" parent="1" source="Zov4xInvCPfz1kqXCunN-3" target="Zov4xInvCPfz1kqXCunN-2">
          <mxGeometry relative="1" as="geometry" />
        </mxCell>
        <mxCell id="Zov4xInvCPfz1kqXCunN-7" style="edgeStyle=orthogonalEdgeStyle;rounded=0;orthogonalLoop=1;jettySize=auto;html=1;entryX=0.5;entryY=0;entryDx=0;entryDy=0;" edge="1" parent="1" source="Zov4xInvCPfz1kqXCunN-3" target="Zov4xInvCPfz1kqXCunN-6">
          <mxGeometry relative="1" as="geometry" />
        </mxCell>
        <mxCell id="Zov4xInvCPfz1kqXCunN-3" value="Is i &amp;lt;= N" style="rhombus;whiteSpace=wrap;html=1;" vertex="1" parent="1">
          <mxGeometry x="385" y="140" width="80" height="80" as="geometry" />
        </mxCell>
        <mxCell id="Zov4xInvCPfz1kqXCunN-5" value="Yes" style="text;html=1;align=center;verticalAlign=middle;whiteSpace=wrap;rounded=0;" vertex="1" parent="1">
          <mxGeometry x="300" y="140" width="60" height="30" as="geometry" />
        </mxCell>
        <mxCell id="Zov4xInvCPfz1kqXCunN-22" style="edgeStyle=orthogonalEdgeStyle;rounded=0;orthogonalLoop=1;jettySize=auto;html=1;entryX=0.5;entryY=0;entryDx=0;entryDy=0;" edge="1" parent="1" source="Zov4xInvCPfz1kqXCunN-6">
          <mxGeometry relative="1" as="geometry">
            <mxPoint x="590" y="470" as="targetPoint" />
          </mxGeometry>
        </mxCell>
        <mxCell id="Zov4xInvCPfz1kqXCunN-6" value="Update center of mass of cell" style="rounded=0;whiteSpace=wrap;html=1;" vertex="1" parent="1">
          <mxGeometry x="530" y="260" width="120" height="60" as="geometry" />
        </mxCell>
        <mxCell id="Zov4xInvCPfz1kqXCunN-10" value="Yes" style="text;html=1;align=center;verticalAlign=middle;whiteSpace=wrap;rounded=0;" vertex="1" parent="1">
          <mxGeometry x="180" y="250" width="60" height="30" as="geometry" />
        </mxCell>
        <mxCell id="Zov4xInvCPfz1kqXCunN-19" style="edgeStyle=orthogonalEdgeStyle;rounded=0;orthogonalLoop=1;jettySize=auto;html=1;entryX=0.5;entryY=0;entryDx=0;entryDy=0;" edge="1" parent="1" source="Zov4xInvCPfz1kqXCunN-12" target="Zov4xInvCPfz1kqXCunN-17">
          <mxGeometry relative="1" as="geometry" />
        </mxCell>
        <mxCell id="Zov4xInvCPfz1kqXCunN-12" value="Solve (1), (3)" style="rounded=0;whiteSpace=wrap;html=1;" vertex="1" parent="1">
          <mxGeometry x="120" y="350" width="120" height="60" as="geometry" />
        </mxCell>
        <mxCell id="Zov4xInvCPfz1kqXCunN-18" style="edgeStyle=orthogonalEdgeStyle;rounded=0;orthogonalLoop=1;jettySize=auto;html=1;entryX=0.5;entryY=0;entryDx=0;entryDy=0;" edge="1" parent="1" source="Zov4xInvCPfz1kqXCunN-13" target="Zov4xInvCPfz1kqXCunN-17">
          <mxGeometry relative="1" as="geometry" />
        </mxCell>
        <mxCell id="Zov4xInvCPfz1kqXCunN-13" value="Solve (1), (2)" style="rounded=0;whiteSpace=wrap;html=1;" vertex="1" parent="1">
          <mxGeometry x="330" y="350" width="120" height="60" as="geometry" />
        </mxCell>
        <mxCell id="Zov4xInvCPfz1kqXCunN-15" value="No" style="text;html=1;align=center;verticalAlign=middle;whiteSpace=wrap;rounded=0;" vertex="1" parent="1">
          <mxGeometry x="325" y="250" width="60" height="30" as="geometry" />
        </mxCell>
        <mxCell id="Zov4xInvCPfz1kqXCunN-16" value="No" style="text;html=1;align=center;verticalAlign=middle;whiteSpace=wrap;rounded=0;" vertex="1" parent="1">
          <mxGeometry x="500" y="140" width="60" height="30" as="geometry" />
        </mxCell>
        <mxCell id="Zov4xInvCPfz1kqXCunN-20" style="edgeStyle=orthogonalEdgeStyle;rounded=0;orthogonalLoop=1;jettySize=auto;html=1;entryX=0.5;entryY=1;entryDx=0;entryDy=0;" edge="1" parent="1" source="Zov4xInvCPfz1kqXCunN-17" target="Zov4xInvCPfz1kqXCunN-3">
          <mxGeometry relative="1" as="geometry">
            <Array as="points">
              <mxPoint x="460" y="510" />
              <mxPoint x="460" y="270" />
              <mxPoint x="425" y="270" />
            </Array>
          </mxGeometry>
        </mxCell>
        <mxCell id="Zov4xInvCPfz1kqXCunN-17" value="i++" style="rounded=0;whiteSpace=wrap;html=1;" vertex="1" parent="1">
          <mxGeometry x="220" y="480" width="120" height="60" as="geometry" />
        </mxCell>
        <mxCell id="Zov4xInvCPfz1kqXCunN-23" value="End" style="rounded=1;whiteSpace=wrap;html=1;" vertex="1" parent="1">
          <mxGeometry x="530" y="470" width="120" height="60" as="geometry" />
        </mxCell>
        <mxCell id="Zov4xInvCPfz1kqXCunN-24" value="IC : i=1" style="text;html=1;align=center;verticalAlign=middle;whiteSpace=wrap;rounded=0;" vertex="1" parent="1">
          <mxGeometry x="60" y="100" width="120" height="60" as="geometry" />
        </mxCell>
      </root>
    </mxGraphModel>
  </diagram>
</mxfile>
